<svg xmlns="http://www.w3.org/2000/svg" xmlns:xlink="http://www.w3.org/1999/xlink" width="366" height="578" contentStyleType="text/css" preserveAspectRatio="none" style="width:366px;height:578px;background:#fff" version="1.1" viewBox="0 0 366 578" zoomAndPan="magnify"><g><ellipse cx="183" cy="20" fill="#222" rx="10" ry="10" style="stroke:#222;stroke-width:1"/><rect width="175" height="33.969" x="95.5" y="50" fill="#F1F1F1" rx="12.5" ry="12.5" style="stroke:#181818;stroke-width:.5"/><text x="105.5" y="71.139" fill="#000" font-family="sans-serif" font-size="12" lengthAdjust="spacing" textLength="155">User process calls sbrk()</text><polygon fill="#F1F1F1" points="119.5 103.969 246.5 103.969 258.5 115.969 246.5 127.969 119.5 127.969 107.5 115.969 119.5 103.969" style="stroke:#181818;stroke-width:.5"/><text x="119.5" y="119.777" fill="#000" font-family="sans-serif" font-size="11" lengthAdjust="spacing" textLength="127">current_allocator == 1</text><text x="86.5" y="113.374" fill="#000" font-family="sans-serif" font-size="11" lengthAdjust="spacing" textLength="21">yes</text><text x="258.5" y="113.374" fill="#000" font-family="sans-serif" font-size="11" lengthAdjust="spacing" textLength="14">no</text><rect width="147" height="33.969" x="24" y="137.969" fill="#F1F1F1" rx="12.5" ry="12.5" style="stroke:#181818;stroke-width:.5"/><text x="34" y="159.107" fill="#000" font-family="sans-serif" font-size="12" lengthAdjust="spacing" textLength="127">Update process size</text><rect width="151" height="33.969" x="22" y="191.938" fill="#F1F1F1" rx="12.5" ry="12.5" style="stroke:#181818;stroke-width:.5"/><text x="32" y="213.076" fill="#000" font-family="sans-serif" font-size="12" lengthAdjust="spacing" textLength="131">No memory allocation</text><rect width="122" height="33.969" x="207.5" y="137.969" fill="#F1F1F1" rx="12.5" ry="12.5" style="stroke:#181818;stroke-width:.5"/><text x="217.5" y="159.107" fill="#000" font-family="sans-serif" font-size="12" lengthAdjust="spacing" textLength="102">Allocate memory</text><rect width="147" height="33.969" x="195" y="191.938" fill="#F1F1F1" rx="12.5" ry="12.5" style="stroke:#181818;stroke-width:.5"/><text x="205" y="213.076" fill="#000" font-family="sans-serif" font-size="12" lengthAdjust="spacing" textLength="127">Update process size</text><polygon fill="#F1F1F1" points="183 231.906 195 243.906 183 255.906 171 243.906 183 231.906" style="stroke:#181818;stroke-width:.5"/><rect width="292" height="33.969" x="37" y="275.906" fill="#F1F1F1" rx="12.5" ry="12.5" style="stroke:#181818;stroke-width:.5"/><text x="47" y="297.045" fill="#000" font-family="sans-serif" font-size="12" lengthAdjust="spacing" textLength="272">User process accesses unallocated address</text><rect width="123" height="33.969" x="121.5" y="329.875" fill="#F1F1F1" rx="12.5" ry="12.5" style="stroke:#181818;stroke-width:.5"/><text x="131.5" y="351.014" fill="#000" font-family="sans-serif" font-size="12" lengthAdjust="spacing" textLength="103">Page fault occurs</text><rect width="255" height="33.969" x="55.5" y="383.844" fill="#F1F1F1" rx="12.5" ry="12.5" style="stroke:#181818;stroke-width:.5"/><text x="65.5" y="404.982" fill="#000" font-family="sans-serif" font-size="12" lengthAdjust="spacing" textLength="235">Allocate new page of physical memory</text><rect width="177" height="33.969" x="94.5" y="437.813" fill="#F1F1F1" rx="12.5" ry="12.5" style="stroke:#181818;stroke-width:.5"/><text x="104.5" y="458.951" fill="#000" font-family="sans-serif" font-size="12" lengthAdjust="spacing" textLength="157">Set memory page to zero</text><rect width="344" height="33.969" x="11" y="491.781" fill="#F1F1F1" rx="12.5" ry="12.5" style="stroke:#181818;stroke-width:.5"/><text x="21" y="512.92" fill="#000" font-family="sans-serif" font-size="12" lengthAdjust="spacing" textLength="324">Map physical memory page to faulting virtual address</text><ellipse cx="183" cy="556.75" fill="none" rx="11" ry="11" style="stroke:#222;stroke-width:1"/><ellipse cx="183" cy="556.75" fill="#222" rx="6" ry="6" style="stroke:#111;stroke-width:1"/><line style="stroke:#181818;stroke-width:1" x1="183" x2="183" y1="30" y2="50"/><polygon fill="#181818" points="179 40 183 50 187 40 183 44" style="stroke:#181818;stroke-width:1"/><line style="stroke:#181818;stroke-width:1" x1="97.5" x2="97.5" y1="171.938" y2="191.938"/><polygon fill="#181818" points="93.5 181.938 97.5 191.938 101.5 181.938 97.5 185.938" style="stroke:#181818;stroke-width:1"/><line style="stroke:#181818;stroke-width:1" x1="268.5" x2="268.5" y1="171.938" y2="191.938"/><polygon fill="#181818" points="264.5 181.938 268.5 191.938 272.5 181.938 268.5 185.938" style="stroke:#181818;stroke-width:1"/><line style="stroke:#181818;stroke-width:1" x1="107.5" x2="97.5" y1="115.969" y2="115.969"/><line style="stroke:#181818;stroke-width:1" x1="97.5" x2="97.5" y1="115.969" y2="137.969"/><polygon fill="#181818" points="93.5 127.969 97.5 137.969 101.5 127.969 97.5 131.969" style="stroke:#181818;stroke-width:1"/><line style="stroke:#181818;stroke-width:1" x1="258.5" x2="268.5" y1="115.969" y2="115.969"/><line style="stroke:#181818;stroke-width:1" x1="268.5" x2="268.5" y1="115.969" y2="137.969"/><polygon fill="#181818" points="264.5 127.969 268.5 137.969 272.5 127.969 268.5 131.969" style="stroke:#181818;stroke-width:1"/><line style="stroke:#181818;stroke-width:1" x1="97.5" x2="97.5" y1="225.906" y2="243.906"/><line style="stroke:#181818;stroke-width:1" x1="97.5" x2="171" y1="243.906" y2="243.906"/><polygon fill="#181818" points="161 239.906 171 243.906 161 247.906 165 243.906" style="stroke:#181818;stroke-width:1"/><line style="stroke:#181818;stroke-width:1" x1="268.5" x2="268.5" y1="225.906" y2="243.906"/><line style="stroke:#181818;stroke-width:1" x1="268.5" x2="195" y1="243.906" y2="243.906"/><polygon fill="#181818" points="205 239.906 195 243.906 205 247.906 201 243.906" style="stroke:#181818;stroke-width:1"/><line style="stroke:#181818;stroke-width:1" x1="183" x2="183" y1="83.969" y2="103.969"/><polygon fill="#181818" points="179 93.969 183 103.969 187 93.969 183 97.969" style="stroke:#181818;stroke-width:1"/><line style="stroke:#181818;stroke-width:1" x1="183" x2="183" y1="255.906" y2="275.906"/><polygon fill="#181818" points="179 265.906 183 275.906 187 265.906 183 269.906" style="stroke:#181818;stroke-width:1"/><line style="stroke:#181818;stroke-width:1" x1="183" x2="183" y1="309.875" y2="329.875"/><polygon fill="#181818" points="179 319.875 183 329.875 187 319.875 183 323.875" style="stroke:#181818;stroke-width:1"/><line style="stroke:#181818;stroke-width:1" x1="183" x2="183" y1="363.844" y2="383.844"/><polygon fill="#181818" points="179 373.844 183 383.844 187 373.844 183 377.844" style="stroke:#181818;stroke-width:1"/><line style="stroke:#181818;stroke-width:1" x1="183" x2="183" y1="417.813" y2="437.813"/><polygon fill="#181818" points="179 427.813 183 437.813 187 427.813 183 431.813" style="stroke:#181818;stroke-width:1"/><line style="stroke:#181818;stroke-width:1" x1="183" x2="183" y1="471.781" y2="491.781"/><polygon fill="#181818" points="179 481.781 183 491.781 187 481.781 183 485.781" style="stroke:#181818;stroke-width:1"/><line style="stroke:#181818;stroke-width:1" x1="183" x2="183" y1="525.75" y2="545.75"/><polygon fill="#181818" points="179 535.75 183 545.75 187 535.75 183 539.75" style="stroke:#181818;stroke-width:1"/></g></svg>