<?xml version="1.0" encoding="us-ascii" standalone="no"?><svg xmlns="http://www.w3.org/2000/svg" xmlns:xlink="http://www.w3.org/1999/xlink" contentStyleType="text/css" height="578px" preserveAspectRatio="none" style="width:366px;height:578px;background:#FFFFFF;" version="1.1" viewBox="0 0 366 578" width="366px" zoomAndPan="magnify"><defs/><g><ellipse cx="183" cy="20" fill="#222222" rx="10" ry="10" style="stroke:#222222;stroke-width:1.0;"/><rect fill="#F1F1F1" height="33.9688" rx="12.5" ry="12.5" style="stroke:#181818;stroke-width:0.5;" width="175" x="95.5" y="50"/><text fill="#000000" font-family="sans-serif" font-size="12" lengthAdjust="spacing" textLength="155" x="105.5" y="71.1387">User process calls sbrk()</text><polygon fill="#F1F1F1" points="119.5,103.9688,246.5,103.9688,258.5,115.9688,246.5,127.9688,119.5,127.9688,107.5,115.9688,119.5,103.9688" style="stroke:#181818;stroke-width:0.5;"/><text fill="#000000" font-family="sans-serif" font-size="11" lengthAdjust="spacing" textLength="127" x="119.5" y="119.7769">current_allocator == 1</text><text fill="#000000" font-family="sans-serif" font-size="11" lengthAdjust="spacing" textLength="21" x="86.5" y="113.3745">yes</text><text fill="#000000" font-family="sans-serif" font-size="11" lengthAdjust="spacing" textLength="14" x="258.5" y="113.3745">no</text><rect fill="#F1F1F1" height="33.9688" rx="12.5" ry="12.5" style="stroke:#181818;stroke-width:0.5;" width="147" x="24" y="137.9688"/><text fill="#000000" font-family="sans-serif" font-size="12" lengthAdjust="spacing" textLength="127" x="34" y="159.1074">Update process size</text><rect fill="#F1F1F1" height="33.9688" rx="12.5" ry="12.5" style="stroke:#181818;stroke-width:0.5;" width="151" x="22" y="191.9375"/><text fill="#000000" font-family="sans-serif" font-size="12" lengthAdjust="spacing" textLength="131" x="32" y="213.0762">No memory allocation</text><rect fill="#F1F1F1" height="33.9688" rx="12.5" ry="12.5" style="stroke:#181818;stroke-width:0.5;" width="122" x="207.5" y="137.9688"/><text fill="#000000" font-family="sans-serif" font-size="12" lengthAdjust="spacing" textLength="102" x="217.5" y="159.1074">Allocate memory</text><rect fill="#F1F1F1" height="33.9688" rx="12.5" ry="12.5" style="stroke:#181818;stroke-width:0.5;" width="147" x="195" y="191.9375"/><text fill="#000000" font-family="sans-serif" font-size="12" lengthAdjust="spacing" textLength="127" x="205" y="213.0762">Update process size</text><polygon fill="#F1F1F1" points="183,231.9063,195,243.9063,183,255.9063,171,243.9063,183,231.9063" style="stroke:#181818;stroke-width:0.5;"/><rect fill="#F1F1F1" height="33.9688" rx="12.5" ry="12.5" style="stroke:#181818;stroke-width:0.5;" width="292" x="37" y="275.9063"/><text fill="#000000" font-family="sans-serif" font-size="12" lengthAdjust="spacing" textLength="272" x="47" y="297.0449">User process accesses unallocated address</text><rect fill="#F1F1F1" height="33.9688" rx="12.5" ry="12.5" style="stroke:#181818;stroke-width:0.5;" width="123" x="121.5" y="329.875"/><text fill="#000000" font-family="sans-serif" font-size="12" lengthAdjust="spacing" textLength="103" x="131.5" y="351.0137">Page fault occurs</text><rect fill="#F1F1F1" height="33.9688" rx="12.5" ry="12.5" style="stroke:#181818;stroke-width:0.5;" width="255" x="55.5" y="383.8438"/><text fill="#000000" font-family="sans-serif" font-size="12" lengthAdjust="spacing" textLength="235" x="65.5" y="404.9824">Allocate new page of physical memory</text><rect fill="#F1F1F1" height="33.9688" rx="12.5" ry="12.5" style="stroke:#181818;stroke-width:0.5;" width="177" x="94.5" y="437.8125"/><text fill="#000000" font-family="sans-serif" font-size="12" lengthAdjust="spacing" textLength="157" x="104.5" y="458.9512">Set memory page to zero</text><rect fill="#F1F1F1" height="33.9688" rx="12.5" ry="12.5" style="stroke:#181818;stroke-width:0.5;" width="344" x="11" y="491.7813"/><text fill="#000000" font-family="sans-serif" font-size="12" lengthAdjust="spacing" textLength="324" x="21" y="512.9199">Map physical memory page to faulting virtual address</text><ellipse cx="183" cy="556.75" fill="none" rx="11" ry="11" style="stroke:#222222;stroke-width:1.0;"/><ellipse cx="183" cy="556.75" fill="#222222" rx="6" ry="6" style="stroke:#111111;stroke-width:1.0;"/><line style="stroke:#181818;stroke-width:1.0;" x1="183" x2="183" y1="30" y2="50"/><polygon fill="#181818" points="179,40,183,50,187,40,183,44" style="stroke:#181818;stroke-width:1.0;"/><line style="stroke:#181818;stroke-width:1.0;" x1="97.5" x2="97.5" y1="171.9375" y2="191.9375"/><polygon fill="#181818" points="93.5,181.9375,97.5,191.9375,101.5,181.9375,97.5,185.9375" style="stroke:#181818;stroke-width:1.0;"/><line style="stroke:#181818;stroke-width:1.0;" x1="268.5" x2="268.5" y1="171.9375" y2="191.9375"/><polygon fill="#181818" points="264.5,181.9375,268.5,191.9375,272.5,181.9375,268.5,185.9375" style="stroke:#181818;stroke-width:1.0;"/><line style="stroke:#181818;stroke-width:1.0;" x1="107.5" x2="97.5" y1="115.9688" y2="115.9688"/><line style="stroke:#181818;stroke-width:1.0;" x1="97.5" x2="97.5" y1="115.9688" y2="137.9688"/><polygon fill="#181818" points="93.5,127.9688,97.5,137.9688,101.5,127.9688,97.5,131.9688" style="stroke:#181818;stroke-width:1.0;"/><line style="stroke:#181818;stroke-width:1.0;" x1="258.5" x2="268.5" y1="115.9688" y2="115.9688"/><line style="stroke:#181818;stroke-width:1.0;" x1="268.5" x2="268.5" y1="115.9688" y2="137.9688"/><polygon fill="#181818" points="264.5,127.9688,268.5,137.9688,272.5,127.9688,268.5,131.9688" style="stroke:#181818;stroke-width:1.0;"/><line style="stroke:#181818;stroke-width:1.0;" x1="97.5" x2="97.5" y1="225.9063" y2="243.9063"/><line style="stroke:#181818;stroke-width:1.0;" x1="97.5" x2="171" y1="243.9063" y2="243.9063"/><polygon fill="#181818" points="161,239.9063,171,243.9063,161,247.9063,165,243.9063" style="stroke:#181818;stroke-width:1.0;"/><line style="stroke:#181818;stroke-width:1.0;" x1="268.5" x2="268.5" y1="225.9063" y2="243.9063"/><line style="stroke:#181818;stroke-width:1.0;" x1="268.5" x2="195" y1="243.9063" y2="243.9063"/><polygon fill="#181818" points="205,239.9063,195,243.9063,205,247.9063,201,243.9063" style="stroke:#181818;stroke-width:1.0;"/><line style="stroke:#181818;stroke-width:1.0;" x1="183" x2="183" y1="83.9688" y2="103.9688"/><polygon fill="#181818" points="179,93.9688,183,103.9688,187,93.9688,183,97.9688" style="stroke:#181818;stroke-width:1.0;"/><line style="stroke:#181818;stroke-width:1.0;" x1="183" x2="183" y1="255.9063" y2="275.9063"/><polygon fill="#181818" points="179,265.9063,183,275.9063,187,265.9063,183,269.9063" style="stroke:#181818;stroke-width:1.0;"/><line style="stroke:#181818;stroke-width:1.0;" x1="183" x2="183" y1="309.875" y2="329.875"/><polygon fill="#181818" points="179,319.875,183,329.875,187,319.875,183,323.875" style="stroke:#181818;stroke-width:1.0;"/><line style="stroke:#181818;stroke-width:1.0;" x1="183" x2="183" y1="363.8438" y2="383.8438"/><polygon fill="#181818" points="179,373.8438,183,383.8438,187,373.8438,183,377.8438" style="stroke:#181818;stroke-width:1.0;"/><line style="stroke:#181818;stroke-width:1.0;" x1="183" x2="183" y1="417.8125" y2="437.8125"/><polygon fill="#181818" points="179,427.8125,183,437.8125,187,427.8125,183,431.8125" style="stroke:#181818;stroke-width:1.0;"/><line style="stroke:#181818;stroke-width:1.0;" x1="183" x2="183" y1="471.7813" y2="491.7813"/><polygon fill="#181818" points="179,481.7813,183,491.7813,187,481.7813,183,485.7813" style="stroke:#181818;stroke-width:1.0;"/><line style="stroke:#181818;stroke-width:1.0;" x1="183" x2="183" y1="525.75" y2="545.75"/><polygon fill="#181818" points="179,535.75,183,545.75,187,535.75,183,539.75" style="stroke:#181818;stroke-width:1.0;"/><!--SRC=[TO-nRiCm34HtVSMDzjZLGePyG8i2HUP2bUb4g2CA99t2-Vh8hkiXG2S2Tu-yereGSzr9IL248waYXd5Kw9TyDwrtQK0J9n7AzbaDZi5OS3ZWfOLTAAEPILi7TAVI1wFzZAOx-KL_OrpfoZ9Zsq-SlQDH2KtcTVNuQz06-d_FKUxJyDGtn6MGOifR0FK8VIzLzQvx3sV24ARHmB5-icXxNgOVb0NW0UKoQwhFxoMw3xA_wYjaZ3i9L-Srb6T-HzQibC-u9R6f-diNDIuF]--></g></svg>