<svg xmlns="http://www.w3.org/2000/svg" xmlns:xlink="http://www.w3.org/1999/xlink" width="417" height="562" contentStyleType="text/css" preserveAspectRatio="none" style="width:417px;height:562px;background:#fff" version="1.1" viewBox="0 0 417 562" zoomAndPan="magnify"><g><rect width="73" height="33.969" x="213.5" y="11" fill="#F1F1F1" rx="12.5" ry="12.5" style="stroke:#181818;stroke-width:.5"/><text x="223.5" y="32.139" fill="#000" font-family="sans-serif" font-size="12" lengthAdjust="spacing" textLength="53">launch()|</text><rect width="116" height="33.969" x="192" y="64.969" fill="#F1F1F1" rx="12.5" ry="12.5" style="stroke:#181818;stroke-width:.5"/><text x="202" y="86.107" fill="#000" font-family="sans-serif" font-size="12" lengthAdjust="spacing" textLength="96">Packet-In Event|</text><rect width="136" height="33.969" x="182" y="118.938" fill="#F1F1F1" rx="12.5" ry="12.5" style="stroke:#181818;stroke-width:.5"/><text x="192" y="140.076" fill="#000" font-family="sans-serif" font-size="12" lengthAdjust="spacing" textLength="116">_handle_PacketIn()|</text><rect width="117" height="33.969" x="191.5" y="172.906" fill="#F1F1F1" rx="12.5" ry="12.5" style="stroke:#181818;stroke-width:.5"/><text x="201.5" y="194.045" fill="#000" font-family="sans-serif" font-size="12" lengthAdjust="spacing" textLength="97">parse_packet()|</text><polygon fill="#F1F1F1" points="207 226.875 293 226.875 305 238.875 293 250.875 207 250.875 195 238.875 207 226.875" style="stroke:#181818;stroke-width:.5"/><text x="207" y="242.683" fill="#000" font-family="sans-serif" font-size="11" lengthAdjust="spacing" textLength="86">Learning mode</text><text x="158" y="236.281" fill="#000" font-family="sans-serif" font-size="11" lengthAdjust="spacing" textLength="37">Switch</text><text x="305" y="236.281" fill="#000" font-family="sans-serif" font-size="11" lengthAdjust="spacing" textLength="22">Hub</text><rect width="124" height="33.969" x="86" y="260.875" fill="#F1F1F1" rx="12.5" ry="12.5" style="stroke:#181818;stroke-width:.5"/><text x="96" y="282.014" fill="#000" font-family="sans-serif" font-size="12" lengthAdjust="spacing" textLength="104">act_like_switch()|</text><rect width="65" height="33.969" x="115.5" y="314.844" fill="#F1F1F1" rx="12.5" ry="12.5" style="stroke:#181818;stroke-width:.5"/><text x="125.5" y="335.982" fill="#000" font-family="sans-serif" font-size="12" lengthAdjust="spacing" textLength="45">learn()|</text><rect width="76" height="33.969" x="110" y="368.813" fill="#F1F1F1" rx="12.5" ry="12.5" style="stroke:#181818;stroke-width:.5"/><text x="120" y="389.951" fill="#000" font-family="sans-serif" font-size="12" lengthAdjust="spacing" textLength="56">lookup()|</text><polygon fill="#F1F1F1" points="83 422.781 213 422.781 225 434.781 213 446.781 83 446.781 71 434.781 83 422.781" style="stroke:#181818;stroke-width:.5"/><text x="83" y="438.589" fill="#000" font-family="sans-serif" font-size="11" lengthAdjust="spacing" textLength="130">Destination MAC found</text><text x="50" y="432.187" fill="#000" font-family="sans-serif" font-size="11" lengthAdjust="spacing" textLength="21">Yes</text><text x="225" y="432.187" fill="#000" font-family="sans-serif" font-size="11" lengthAdjust="spacing" textLength="15">No</text><rect width="100" height="33.969" x="11" y="456.781" fill="#F1F1F1" rx="12.5" ry="12.5" style="stroke:#181818;stroke-width:.5"/><text x="21" y="477.92" fill="#000" font-family="sans-serif" font-size="12" lengthAdjust="spacing" textLength="80">install_flow()|</text><rect width="66" height="33.969" x="202" y="456.781" fill="#F1F1F1" rx="12.5" ry="12.5" style="stroke:#181818;stroke-width:.5"/><text x="212" y="477.92" fill="#000" font-family="sans-serif" font-size="12" lengthAdjust="spacing" textLength="46">flood()|</text><polygon fill="#F1F1F1" points="148 496.75 160 508.75 148 520.75 136 508.75 148 496.75" style="stroke:#181818;stroke-width:.5"/><rect width="108" height="33.969" x="298" y="260.875" fill="#F1F1F1" rx="12.5" ry="12.5" style="stroke:#181818;stroke-width:.5"/><text x="308" y="282.014" fill="#000" font-family="sans-serif" font-size="12" lengthAdjust="spacing" textLength="88">act_like_hub()|</text><polygon fill="#F1F1F1" points="250 526.75 262 538.75 250 550.75 238 538.75 250 526.75" style="stroke:#181818;stroke-width:.5"/><line style="stroke:#181818;stroke-width:1" x1="250" x2="250" y1="44.969" y2="64.969"/><polygon fill="#181818" points="246 54.969 250 64.969 254 54.969 250 58.969" style="stroke:#181818;stroke-width:1"/><line style="stroke:#181818;stroke-width:1" x1="250" x2="250" y1="98.938" y2="118.938"/><polygon fill="#181818" points="246 108.938 250 118.938 254 108.938 250 112.938" style="stroke:#181818;stroke-width:1"/><line style="stroke:#181818;stroke-width:1" x1="250" x2="250" y1="152.906" y2="172.906"/><polygon fill="#181818" points="246 162.906 250 172.906 254 162.906 250 166.906" style="stroke:#181818;stroke-width:1"/><line style="stroke:#181818;stroke-width:1" x1="148" x2="148" y1="294.844" y2="314.844"/><polygon fill="#181818" points="144 304.844 148 314.844 152 304.844 148 308.844" style="stroke:#181818;stroke-width:1"/><line style="stroke:#181818;stroke-width:1" x1="148" x2="148" y1="348.813" y2="368.813"/><polygon fill="#181818" points="144 358.813 148 368.813 152 358.813 148 362.813" style="stroke:#181818;stroke-width:1"/><line style="stroke:#181818;stroke-width:1" x1="71" x2="61" y1="434.781" y2="434.781"/><line style="stroke:#181818;stroke-width:1" x1="61" x2="61" y1="434.781" y2="456.781"/><polygon fill="#181818" points="57 446.781 61 456.781 65 446.781 61 450.781" style="stroke:#181818;stroke-width:1"/><line style="stroke:#181818;stroke-width:1" x1="225" x2="235" y1="434.781" y2="434.781"/><line style="stroke:#181818;stroke-width:1" x1="235" x2="235" y1="434.781" y2="456.781"/><polygon fill="#181818" points="231 446.781 235 456.781 239 446.781 235 450.781" style="stroke:#181818;stroke-width:1"/><line style="stroke:#181818;stroke-width:1" x1="61" x2="61" y1="490.75" y2="508.75"/><line style="stroke:#181818;stroke-width:1" x1="61" x2="136" y1="508.75" y2="508.75"/><polygon fill="#181818" points="126 504.75 136 508.75 126 512.75 130 508.75" style="stroke:#181818;stroke-width:1"/><line style="stroke:#181818;stroke-width:1" x1="235" x2="235" y1="490.75" y2="508.75"/><line style="stroke:#181818;stroke-width:1" x1="235" x2="160" y1="508.75" y2="508.75"/><polygon fill="#181818" points="170 504.75 160 508.75 170 512.75 166 508.75" style="stroke:#181818;stroke-width:1"/><line style="stroke:#181818;stroke-width:1" x1="148" x2="148" y1="402.781" y2="422.781"/><polygon fill="#181818" points="144 412.781 148 422.781 152 412.781 148 416.781" style="stroke:#181818;stroke-width:1"/><line style="stroke:#181818;stroke-width:1" x1="195" x2="148" y1="238.875" y2="238.875"/><line style="stroke:#181818;stroke-width:1" x1="148" x2="148" y1="238.875" y2="260.875"/><polygon fill="#181818" points="144 250.875 148 260.875 152 250.875 148 254.875" style="stroke:#181818;stroke-width:1"/><line style="stroke:#181818;stroke-width:1" x1="305" x2="352" y1="238.875" y2="238.875"/><line style="stroke:#181818;stroke-width:1" x1="352" x2="352" y1="238.875" y2="260.875"/><polygon fill="#181818" points="348 250.875 352 260.875 356 250.875 352 254.875" style="stroke:#181818;stroke-width:1"/><line style="stroke:#181818;stroke-width:1" x1="148" x2="148" y1="520.75" y2="538.75"/><line style="stroke:#181818;stroke-width:1" x1="148" x2="238" y1="538.75" y2="538.75"/><polygon fill="#181818" points="228 534.75 238 538.75 228 542.75 232 538.75" style="stroke:#181818;stroke-width:1"/><line style="stroke:#181818;stroke-width:1" x1="352" x2="352" y1="294.844" y2="538.75"/><line style="stroke:#181818;stroke-width:1" x1="352" x2="262" y1="538.75" y2="538.75"/><polygon fill="#181818" points="272 534.75 262 538.75 272 542.75 268 538.75" style="stroke:#181818;stroke-width:1"/><line style="stroke:#181818;stroke-width:1" x1="250" x2="250" y1="206.875" y2="226.875"/><polygon fill="#181818" points="246 216.875 250 226.875 254 216.875 250 220.875" style="stroke:#181818;stroke-width:1"/></g></svg>