<?xml version="1.0" encoding="us-ascii" standalone="no"?><svg xmlns="http://www.w3.org/2000/svg" xmlns:xlink="http://www.w3.org/1999/xlink" contentStyleType="text/css" height="562px" preserveAspectRatio="none" style="width:417px;height:562px;background:#FFFFFF;" version="1.1" viewBox="0 0 417 562" width="417px" zoomAndPan="magnify"><defs/><g><rect fill="#F1F1F1" height="33.9688" rx="12.5" ry="12.5" style="stroke:#181818;stroke-width:0.5;" width="73" x="213.5" y="11"/><text fill="#000000" font-family="sans-serif" font-size="12" lengthAdjust="spacing" textLength="53" x="223.5" y="32.1387">launch()|</text><rect fill="#F1F1F1" height="33.9688" rx="12.5" ry="12.5" style="stroke:#181818;stroke-width:0.5;" width="116" x="192" y="64.9688"/><text fill="#000000" font-family="sans-serif" font-size="12" lengthAdjust="spacing" textLength="96" x="202" y="86.1074">Packet-In Event|</text><rect fill="#F1F1F1" height="33.9688" rx="12.5" ry="12.5" style="stroke:#181818;stroke-width:0.5;" width="136" x="182" y="118.9375"/><text fill="#000000" font-family="sans-serif" font-size="12" lengthAdjust="spacing" textLength="116" x="192" y="140.0762">_handle_PacketIn()|</text><rect fill="#F1F1F1" height="33.9688" rx="12.5" ry="12.5" style="stroke:#181818;stroke-width:0.5;" width="117" x="191.5" y="172.9063"/><text fill="#000000" font-family="sans-serif" font-size="12" lengthAdjust="spacing" textLength="97" x="201.5" y="194.0449">parse_packet()|</text><polygon fill="#F1F1F1" points="207,226.875,293,226.875,305,238.875,293,250.875,207,250.875,195,238.875,207,226.875" style="stroke:#181818;stroke-width:0.5;"/><text fill="#000000" font-family="sans-serif" font-size="11" lengthAdjust="spacing" textLength="86" x="207" y="242.6831">Learning mode</text><text fill="#000000" font-family="sans-serif" font-size="11" lengthAdjust="spacing" textLength="37" x="158" y="236.2808">Switch</text><text fill="#000000" font-family="sans-serif" font-size="11" lengthAdjust="spacing" textLength="22" x="305" y="236.2808">Hub</text><rect fill="#F1F1F1" height="33.9688" rx="12.5" ry="12.5" style="stroke:#181818;stroke-width:0.5;" width="124" x="86" y="260.875"/><text fill="#000000" font-family="sans-serif" font-size="12" lengthAdjust="spacing" textLength="104" x="96" y="282.0137">act_like_switch()|</text><rect fill="#F1F1F1" height="33.9688" rx="12.5" ry="12.5" style="stroke:#181818;stroke-width:0.5;" width="65" x="115.5" y="314.8438"/><text fill="#000000" font-family="sans-serif" font-size="12" lengthAdjust="spacing" textLength="45" x="125.5" y="335.9824">learn()|</text><rect fill="#F1F1F1" height="33.9688" rx="12.5" ry="12.5" style="stroke:#181818;stroke-width:0.5;" width="76" x="110" y="368.8125"/><text fill="#000000" font-family="sans-serif" font-size="12" lengthAdjust="spacing" textLength="56" x="120" y="389.9512">lookup()|</text><polygon fill="#F1F1F1" points="83,422.7813,213,422.7813,225,434.7813,213,446.7813,83,446.7813,71,434.7813,83,422.7813" style="stroke:#181818;stroke-width:0.5;"/><text fill="#000000" font-family="sans-serif" font-size="11" lengthAdjust="spacing" textLength="130" x="83" y="438.5894">Destination MAC found</text><text fill="#000000" font-family="sans-serif" font-size="11" lengthAdjust="spacing" textLength="21" x="50" y="432.187">Yes</text><text fill="#000000" font-family="sans-serif" font-size="11" lengthAdjust="spacing" textLength="15" x="225" y="432.187">No</text><rect fill="#F1F1F1" height="33.9688" rx="12.5" ry="12.5" style="stroke:#181818;stroke-width:0.5;" width="100" x="11" y="456.7813"/><text fill="#000000" font-family="sans-serif" font-size="12" lengthAdjust="spacing" textLength="80" x="21" y="477.9199">install_flow()|</text><rect fill="#F1F1F1" height="33.9688" rx="12.5" ry="12.5" style="stroke:#181818;stroke-width:0.5;" width="66" x="202" y="456.7813"/><text fill="#000000" font-family="sans-serif" font-size="12" lengthAdjust="spacing" textLength="46" x="212" y="477.9199">flood()|</text><polygon fill="#F1F1F1" points="148,496.75,160,508.75,148,520.75,136,508.75,148,496.75" style="stroke:#181818;stroke-width:0.5;"/><rect fill="#F1F1F1" height="33.9688" rx="12.5" ry="12.5" style="stroke:#181818;stroke-width:0.5;" width="108" x="298" y="260.875"/><text fill="#000000" font-family="sans-serif" font-size="12" lengthAdjust="spacing" textLength="88" x="308" y="282.0137">act_like_hub()|</text><polygon fill="#F1F1F1" points="250,526.75,262,538.75,250,550.75,238,538.75,250,526.75" style="stroke:#181818;stroke-width:0.5;"/><line style="stroke:#181818;stroke-width:1.0;" x1="250" x2="250" y1="44.9688" y2="64.9688"/><polygon fill="#181818" points="246,54.9688,250,64.9688,254,54.9688,250,58.9688" style="stroke:#181818;stroke-width:1.0;"/><line style="stroke:#181818;stroke-width:1.0;" x1="250" x2="250" y1="98.9375" y2="118.9375"/><polygon fill="#181818" points="246,108.9375,250,118.9375,254,108.9375,250,112.9375" style="stroke:#181818;stroke-width:1.0;"/><line style="stroke:#181818;stroke-width:1.0;" x1="250" x2="250" y1="152.9063" y2="172.9063"/><polygon fill="#181818" points="246,162.9063,250,172.9063,254,162.9063,250,166.9063" style="stroke:#181818;stroke-width:1.0;"/><line style="stroke:#181818;stroke-width:1.0;" x1="148" x2="148" y1="294.8438" y2="314.8438"/><polygon fill="#181818" points="144,304.8438,148,314.8438,152,304.8438,148,308.8438" style="stroke:#181818;stroke-width:1.0;"/><line style="stroke:#181818;stroke-width:1.0;" x1="148" x2="148" y1="348.8125" y2="368.8125"/><polygon fill="#181818" points="144,358.8125,148,368.8125,152,358.8125,148,362.8125" style="stroke:#181818;stroke-width:1.0;"/><line style="stroke:#181818;stroke-width:1.0;" x1="71" x2="61" y1="434.7813" y2="434.7813"/><line style="stroke:#181818;stroke-width:1.0;" x1="61" x2="61" y1="434.7813" y2="456.7813"/><polygon fill="#181818" points="57,446.7813,61,456.7813,65,446.7813,61,450.7813" style="stroke:#181818;stroke-width:1.0;"/><line style="stroke:#181818;stroke-width:1.0;" x1="225" x2="235" y1="434.7813" y2="434.7813"/><line style="stroke:#181818;stroke-width:1.0;" x1="235" x2="235" y1="434.7813" y2="456.7813"/><polygon fill="#181818" points="231,446.7813,235,456.7813,239,446.7813,235,450.7813" style="stroke:#181818;stroke-width:1.0;"/><line style="stroke:#181818;stroke-width:1.0;" x1="61" x2="61" y1="490.75" y2="508.75"/><line style="stroke:#181818;stroke-width:1.0;" x1="61" x2="136" y1="508.75" y2="508.75"/><polygon fill="#181818" points="126,504.75,136,508.75,126,512.75,130,508.75" style="stroke:#181818;stroke-width:1.0;"/><line style="stroke:#181818;stroke-width:1.0;" x1="235" x2="235" y1="490.75" y2="508.75"/><line style="stroke:#181818;stroke-width:1.0;" x1="235" x2="160" y1="508.75" y2="508.75"/><polygon fill="#181818" points="170,504.75,160,508.75,170,512.75,166,508.75" style="stroke:#181818;stroke-width:1.0;"/><line style="stroke:#181818;stroke-width:1.0;" x1="148" x2="148" y1="402.7813" y2="422.7813"/><polygon fill="#181818" points="144,412.7813,148,422.7813,152,412.7813,148,416.7813" style="stroke:#181818;stroke-width:1.0;"/><line style="stroke:#181818;stroke-width:1.0;" x1="195" x2="148" y1="238.875" y2="238.875"/><line style="stroke:#181818;stroke-width:1.0;" x1="148" x2="148" y1="238.875" y2="260.875"/><polygon fill="#181818" points="144,250.875,148,260.875,152,250.875,148,254.875" style="stroke:#181818;stroke-width:1.0;"/><line style="stroke:#181818;stroke-width:1.0;" x1="305" x2="352" y1="238.875" y2="238.875"/><line style="stroke:#181818;stroke-width:1.0;" x1="352" x2="352" y1="238.875" y2="260.875"/><polygon fill="#181818" points="348,250.875,352,260.875,356,250.875,352,254.875" style="stroke:#181818;stroke-width:1.0;"/><line style="stroke:#181818;stroke-width:1.0;" x1="148" x2="148" y1="520.75" y2="538.75"/><line style="stroke:#181818;stroke-width:1.0;" x1="148" x2="238" y1="538.75" y2="538.75"/><polygon fill="#181818" points="228,534.75,238,538.75,228,542.75,232,538.75" style="stroke:#181818;stroke-width:1.0;"/><line style="stroke:#181818;stroke-width:1.0;" x1="352" x2="352" y1="294.8438" y2="538.75"/><line style="stroke:#181818;stroke-width:1.0;" x1="352" x2="262" y1="538.75" y2="538.75"/><polygon fill="#181818" points="272,534.75,262,538.75,272,542.75,268,538.75" style="stroke:#181818;stroke-width:1.0;"/><line style="stroke:#181818;stroke-width:1.0;" x1="250" x2="250" y1="206.875" y2="226.875"/><polygon fill="#181818" points="246,216.875,250,226.875,254,216.875,250,220.875" style="stroke:#181818;stroke-width:1.0;"/><!--SRC=[LOv13e8m44Ntd6AMiF02k39g8eaQ4rUkcj9ERKET4jhAniDB2vYudFVV_vdQyaX2bzLdMzGtBZeCcuRW-4OA2J7DILfaSzJGBFPyyCZwp38n2iepye4CFU7b95OGD1AKzz44eQi2eEOYC6iwP3wpt9kmJRNVuLmN- -LAemVqmH0FnX5STdjGBf9Snn_eq_BKC-G3jvOfwyQbZTOZb5Ut65FYv1gHDAgOXLDi_x_JiSrQbhu0]--></g></svg>